<svg width="160" height="160" xmlns="http://www.w3.org/2000/svg">

 <g>
  <title>background</title>
  <rect fill="none" id="canvas_background" height="162" width="162" y="-1" x="-1"/>
 </g>
 <g>
  <title>Layer 1</title>
  <g id="svg_1" clip-rule="evenodd" fill-rule="evenodd">
   <path id="svg_2" d="m-16,-16l192.756,0l0,192.756l-192.756,0l0,-192.756z" fill="#fff"/>
   <path id="svg_3" d="m80.396,0.925l-78.85,52.85l32.819,21.311l39.212,-26.426l-15.554,-10.217l21.305,-14.274l46.231,30.679l-75.845,50.918l16.405,10.865l94.379,-62.848l-0.213,-0.213l-79.889,-52.645zm78.631,0.022l-32.808,21.731l16.404,11.078l16.404,-11.078l0,-21.731zm-158.022,158.885l32.809,-21.73l-16.404,-11.079l-16.405,11.079l0,21.73z" fill="#33348e"/>
   <path id="svg_4" d="m80.36,159.787l78.849,-52.851l-32.818,-21.311l-39.211,26.426l15.552,10.217l-21.304,14.275l-46.231,-30.68l75.844,-50.917l-16.404,-10.866l-94.38,62.848l0.213,0.215l79.89,52.644z" fill="#33348e"/>
  </g>
 </g>
</svg>