<svg width="340" height="250" xmlns="http://www.w3.org/2000/svg">
 <defs>
  <style>.cls-1{fill:#8a05be;}</style>
 </defs>
 <title>nu_symbol_purple</title>
 <g>
  <title>background</title>
  <rect fill="none" id="canvas_background" height="252" width="342" y="-1" x="-1"/>
 </g>
 <g>
  <title>Layer 1</title>
  <path id="svg_1" d="m159.53,67.41c0,-40.89 -45.82,-66 -78.68,-66c-22,0 -35.73,10.78 -35.73,28.13l0,11.07l-9.25,0c-16.24,0 -33.42,17.25 -33.42,33.55l0,124.16a11.65,11.65 0 0 0 11.64,11.68l30.16,0c0.18,0 0.35,0 0.53,0a11.63,11.63 0 0 0 11.11,-11.59s0,-119.89 0,-146.94l25.11,0a25.13,25.13 0 0 1 25.1,25.11l0,121.74a11.65,11.65 0 0 0 11.66,11.68l30.18,0a11.65,11.65 0 0 0 11.64,-11.64c0.01,-54.17 -0.05,-130.95 -0.05,-130.95zm-143.45,131.78a2.86,2.86 0 0 1 -2.86,-2.85l0,-122.18c0,-10.22 12.49,-22.78 22.65,-22.78l9.25,0c0,89.49 0,135.28 0,145a2.87,2.87 0 0 1 -2.86,2.85l-26.18,-0.04zm132.73,-2.83a2.83,2.83 0 0 1 -2.85,2.83l-26.22,0a2.86,2.86 0 0 1 -2.85,-2.85l0,-119.86a35.87,35.87 0 0 0 -35.89,-35.87l-25.11,0l0,-11.14c0,-6.46 3.24,-17.29 25,-17.29c42.08,0 67.91,32.17 67.91,55.23c-0.04,0 0.02,74.96 0.01,128.95zm178.27,-156l-30.15,0a11.65,11.65 0 0 0 -11.64,11.64l0,147l-25.13,0a25.13,25.13 0 0 1 -25.1,-25.1l0,-121.9a11.65,11.65 0 0 0 -11.64,-11.64l-30.18,0a11.66,11.66 0 0 0 -11.65,11.64c0,53.13 0.05,130.92 0.05,130.92c0,40.89 45.83,66 78.69,66c22,0 35.72,-10.78 35.72,-28.13l0,-11.05l9.25,0c16.24,0 33.42,-17.24 33.42,-33.54l0,-124.2a11.66,11.66 0 0 0 -11.64,-11.61l0,-0.03zm-41.8,180.49c0,6.46 -3.24,17.29 -24.95,17.29c-42.08,0 -67.92,-32.16 -67.92,-55.22c0,0 -0.05,-74.59 -0.05,-129a2.84,2.84 0 0 1 2.86,-2.83l26.21,0a2.86,2.86 0 0 1 2.86,2.86l0,119.92a35.87,35.87 0 0 0 35.87,35.87l25.13,0l-0.01,11.11zm42.72,-44.65c0,10.21 -12.49,22.77 -22.65,22.77l-9.25,0c0,-62.5 0,-132.55 0,-145a2.83,2.83 0 0 1 2.85,-2.82l26.15,0a2.87,2.87 0 0 1 2.9,2.85l0,122.2z" class="cls-1"/>
 </g>
</svg>