<svg width="291.764" height="215" xmlns="http://www.w3.org/2000/svg">

 <g>
  <title>background</title>
  <rect fill="none" id="canvas_background" height="217" width="293.764" y="-1" x="-1"/>
 </g>
 <g>
  <title>Layer 1</title>
  <g id="svg_1">
   <path id="svg_2" fill="#26A6D1" d="m18.235,2.025l255.294,0c10.066,0 18.235,8.169 18.235,18.244l0,173.235c0,10.066 -8.169,18.235 -18.235,18.235l-255.294,0c-10.075,0.001 -18.235,-8.169 -18.235,-18.234l0,-173.236c0,-10.075 8.169,-18.244 18.235,-18.244z"/>
   <path id="svg_3" fill="#FFFFFF" d="m47.047,74.966l-28.812,63.76l34.492,0l4.276,-10.166l9.774,0l4.276,10.166l37.966,0l0,-7.759l3.383,7.759l19.639,0l3.383,-7.923l0,7.923l78.959,0l9.601,-9.902l8.99,9.902l40.555,0.082l-28.903,-31.784l28.903,-32.058l-39.926,0l-9.346,9.719l-8.707,-9.719l-85.897,0l-7.376,16.457l-7.549,-16.457l-34.42,0l0,7.495l-3.829,-7.495c0,0 -29.432,0 -29.432,0zm6.674,9.054l16.813,0l19.111,43.236l0,-43.236l18.418,0l14.761,31l13.604,-31l18.326,0l0,45.752l-11.151,0l-0.091,-35.851l-16.257,35.851l-9.975,0l-16.348,-35.851l0,35.851l-22.94,0l-4.349,-10.257l-23.496,0l-4.34,10.248l-12.291,0c0,0 20.205,-45.743 20.205,-45.743zm111.235,0l45.342,0l13.868,14.98l14.315,-14.98l13.868,0l-21.071,22.995l21.071,22.73l-14.497,0l-13.868,-15.154l-14.388,15.154l-44.64,0l0,-45.725l0,0zm-103.056,7.741l-7.741,18.272l15.473,0l-7.732,-18.272zm114.253,1.732l0,8.352l24.736,0l0,9.309l-24.736,0l0,9.118l27.745,0l12.892,-13.43l-12.345,-13.357l-28.292,0l0,0.008z"/>
  </g>
  <g id="svg_4"/>
  <g id="svg_5"/>
  <g id="svg_6"/>
  <g id="svg_7"/>
  <g id="svg_8"/>
  <g id="svg_9"/>
  <g id="svg_10"/>
  <g id="svg_11"/>
  <g id="svg_12"/>
  <g id="svg_13"/>
  <g id="svg_14"/>
  <g id="svg_15"/>
  <g id="svg_16"/>
  <g id="svg_17"/>
  <g id="svg_18"/>
 </g>
</svg>