<?xml version="1.0" encoding="UTF-8"?>
<svg xmlns="http://www.w3.org/2000/svg" xmlns:xlink="http://www.w3.org/1999/xlink" width="145px" height="100px" viewBox="0 0 145 100">
  <title>968CF147-8BC6-47B7-A1EC-36315A29FF4D</title>
  <g id="Page-1" stroke="none" stroke-width="1" fill="none" fill-rule="evenodd">
    <g id="Home" transform="translate(-1002.000000, -1093.000000)" fill="#323439">
      <g id="Group-36" transform="translate(0.000000, 700.000000)">
        <g id="Group-49" transform="translate(575.000000, 391.000000)">
          <g id="Group" transform="translate(427.000000, 2.000000)">
            <polygon id="Fill-14" points="133.972906 51.6013862 133.972906 40.5797101 129.927695 40.5797101 129.927695 51.6013862 118.9 51.6013862 118.9 55.6449906 129.927695 55.6449906 129.927695 66.6666667 133.972906 66.6666667 133.972906 55.6449906 145 55.6449906 145 51.6013862"></polygon>
            <path d="M108.95747,43.3504997 C107.920174,42.2676386 106.494117,41.4305545 104.6757,40.83444 C102.862082,40.2437339 100.540914,39.9420711 97.7067987,39.9420711 C94.9098793,39.9420711 92.6103099,40.2329173 90.8188896,40.8079995 C89.0220699,41.3860863 87.5966129,42.2357897 86.5371192,43.3504997 C85.4830249,44.4664115 84.7510983,45.8449261 84.3581377,47.4866445 C83.9591778,49.127762 83.7623975,51.0092482 83.7623975,53.1377133 L83.7623975,54.653839 C83.7623975,56.8526119 83.9753761,58.7779654 84.4121323,60.4359087 C84.8494885,62.093251 85.5646167,63.477174 86.5647164,64.5714526 C87.5696156,65.6717404 88.891283,66.4913978 90.5351181,67.0334293 C92.1795531,67.5754608 94.2271477,67.842871 96.6851012,67.842871 C98.651104,67.842871 100.218747,67.6680027 101.387429,67.3068487 C102.561512,66.9456947 103.523215,66.474572 104.282139,65.9006917 L104.282139,66.2786715 C104.282139,67.5754608 104.156752,68.6577209 103.910776,69.5230484 C103.664801,70.386573 103.261042,71.0650137 102.692899,71.5523613 C102.124756,72.0330988 101.398228,72.3780279 100.513317,72.5751302 C99.6236064,72.7722326 98.5365155,72.8755912 97.2532442,72.8755912 L95.4372264,72.8755912 L95.1408561,72.8755912 L94.2793425,72.8755912 C92.6061104,72.9116465 91.9227789,73.2343415 90.9430772,74.7702976 C82.2859456,89.1515585 66.8122978,97.978499 49.9179926,97.978499 C23.5056421,97.978499 2.01819755,76.4558833 2.01819755,49.9996995 C2.01819755,23.5453185 23.5056421,2.02270283 49.9179926,2.02270283 C68.5383247,2.02270283 85.471626,12.8651351 93.3308377,29.7173865 L95.5572143,29.7173865 C87.5480178,11.6644933 69.6380144,0 49.9179926,0 C22.3927537,0 0,22.4306086 0,49.9996995 C0,77.5705933 22.3927537,100 49.9179926,100 C66.4535338,100 81.6824062,91.8851518 90.9472768,78.4833935 C91.6804032,78.4930083 92.3649346,78.4996184 92.998471,78.4996184 L97.5916102,78.4996184 C100.125756,78.4996184 102.27774,78.2694654 104.052962,77.8217786 C105.828184,77.37289 107.286038,76.6626004 108.416924,75.6879052 C109.55261,74.713811 110.372128,73.4506733 110.885677,71.9026987 C111.393226,70.3487149 111.65,68.4942702 111.65,66.3327544 L111.65,52.3823545 C111.65,50.5056757 111.459219,48.8044661 111.082457,47.2727163 C110.705695,45.7361593 109.995366,44.4345626 108.95747,43.3504997 L108.95747,43.3504997 Z M104.282139,56.0047112 C104.282139,57.2299908 104.195148,58.2365348 104.025365,59.0297516 C103.856182,59.8223675 103.523215,60.4575419 103.031865,60.9226554 C102.539914,61.3931771 101.87938,61.7266887 101.049063,61.9237911 C100.218747,62.1208935 99.1208568,62.2188437 97.7607933,62.2188437 C96.2861412,62.2188437 95.1174584,62.1160861 94.2487456,61.8961487 C93.3752332,61.6828214 92.7254984,61.2838094 92.2935417,60.7093281 C91.8567855,60.1288376 91.573014,59.3368227 91.4422271,58.3296777 C91.3102404,57.3171245 91.2454469,56.0209361 91.2454469,54.4339016 L91.2454469,53.3510405 C91.2454469,51.7706161 91.2994414,50.4678176 91.4140299,49.4612736 C91.5292184,48.4493213 91.8129899,47.6561045 92.2665444,47.0816232 C92.7200989,46.507142 93.3752332,46.1075289 94.2487456,45.8887934 C95.1174584,45.6760671 96.2861412,45.5666993 97.7607933,45.5666993 C99.2354453,45.5666993 100.404728,45.6760671 101.27824,45.8887934 C102.146953,46.1075289 102.807487,46.507142 103.261042,47.0816232 C103.714596,47.6561045 103.998368,48.4493213 104.112956,49.4612736 C104.222145,50.4678176 104.282139,51.7706161 104.282139,53.3510405 L104.282139,56.0047112 Z" id="Fill-16"></path>
            <path d="M29,30.1084633 L29,56.4123719 C29,58.8727745 29.2586634,60.949352 29.7777537,62.6421042 C30.2962562,64.3348565 31.101052,65.6895336 32.1944926,66.7055415 C33.2855817,67.7209552 34.6835396,68.452362 36.3871906,68.8979795 C38.0902537,69.3430028 40.1448639,69.5652174 42.5527847,69.5652174 C45.255229,69.5652174 47.5056002,69.3073534 49.301547,68.7904371 C51.0969059,68.274115 52.5313119,67.4725977 53.6053527,66.3846969 C54.6799814,65.2979844 55.4395111,63.9159761 55.8839418,62.2410485 C56.3277847,60.5661209 56.55,58.5881735 56.55,56.306612 L56.55,53.2591826 C56.55,50.9782152 56.3183787,49.008586 55.8563119,47.3514831 C55.3918936,45.6931919 54.6611696,44.3224726 53.6617884,43.2345718 C52.6618193,42.1478593 51.3643874,41.3451537 49.7730198,40.8288315 C48.1804765,40.3125094 46.236974,40.0534571 43.9413366,40.0534571 C42.0160582,40.0534571 40.4505569,40.2216035 39.2477723,40.561461 C38.0438119,40.8995362 37.0350248,41.3718907 36.2214109,41.9779305 L36.2214109,28.9855072 L29,30.1084633 Z M36.4988861,49.008586 C36.6834777,48.136364 37.0168007,47.4501131 37.4988552,46.9504274 C37.9797339,46.4513358 38.655198,46.1037542 39.5252475,45.9082766 C40.3958849,45.7116108 41.4981436,45.6141691 42.8302599,45.6141691 C44.0894802,45.6141691 45.1264851,45.7032926 45.9406869,45.8815396 C46.7554765,46.0597866 47.4038985,46.4245988 47.8853651,46.9771644 C48.3662438,47.5297301 48.7089728,48.3217409 48.9123762,49.3567618 C49.1157797,50.3911885 49.2180693,51.7446773 49.2180693,53.4196049 L49.2180693,56.4123719 C49.2180693,58.0896761 49.1157797,59.4265285 48.9123762,60.4229292 C48.7089728,61.4217065 48.3568379,62.1875744 47.8577351,62.7229095 C47.3574567,63.2576505 46.6908106,63.604638 45.857797,63.7650603 C45.0247834,63.9254826 43.9777847,64.0056937 42.7191522,64.0056937 C41.3858601,64.0056937 40.2941832,63.9159761 39.4423577,63.7383232 C38.5899443,63.5600762 37.9332921,63.2029881 37.4706374,62.6688413 C37.0068069,62.1335061 36.6834777,61.3682324 36.4988861,60.3706434 C36.3125309,59.3718661 36.2214109,58.0528383 36.2214109,56.4123719 L36.2214109,52.3507171 C36.2214109,50.9954458 36.3125309,49.8825904 36.4988861,49.008586 L36.4988861,49.008586 Z" id="Fill-18"></path>
            <path d="M78.5013889,45.5113093 L79.75,39.65594 L68.630816,39.65594 L68.630816,31.884058 L60.9,33.0329925 L60.9,57.3887012 C60.9,59.4676097 61.0787326,61.2010471 61.4355686,62.5877971 C61.7917752,63.9739388 62.4362196,65.0778648 63.3682726,65.899575 C64.2990668,66.7200687 65.5684462,67.2942318 67.1732639,67.6226726 C68.7793403,67.9517216 70.8309896,68.115942 73.3282118,68.115942 L78.144553,68.115942 L79.3931641,62.2593563 L73.8625217,62.2593563 C72.7926432,62.2593563 71.9096788,62.1967093 71.2174045,62.0683741 C70.5232422,61.9406471 69.9876736,61.6851932 69.6113281,61.301404 C69.2343533,60.9188313 68.9769531,60.3805534 68.8384983,59.6871784 C68.6987847,58.9950199 68.630816,58.0997146 68.630816,57.004912 L68.630816,45.5113093 L78.5013889,45.5113093 Z" id="Fill-20"></path>
          </g>
        </g>
      </g>
    </g>
  </g>
</svg>
