<svg width="299.99999" height="303.75043" xmlns="http://www.w3.org/2000/svg">
 <defs>
  <clipPath clipPathUnits="userSpaceOnUse" id="a">
   <path id="svg_1" d="m0,0l339.98,0l0,340l-339.98,0l0,-340z"/>
  </clipPath>
 </defs>
 <g>
  <title>background</title>
  <rect fill="none" id="canvas_background" height="602" width="802" y="-1" x="-1"/>
 </g>
 <g>
  <title>Layer 1</title>
  <g id="svg_2">
   <g id="svg_3" transform="matrix(4.1707,0,0,-4.2193,195.74,785.27) ">
    <g id="svg_4" transform="translate(-47.00409698486328,114.11371612548828) scale(0.21177999675273895,0.21176999807357788) ">
     <g id="svg_5" clip-path="url(#a)">
      <path id="svg_6" fill="#1a5493" fill-rule="evenodd" d="m57.032,340.05l226.63,0l2.94,-0.06l2.86,-0.24l2.85,-0.36l2.79,-0.49l2.74,-0.64l2.7,-0.76l2.63,-0.89l2.57,-1.02l2.51,-1.13l2.44,-1.25l2.38,-1.38l2.3,-1.47l2.21,-1.57l2.14,-1.7l2.07,-1.79l1.95,-1.87l1.89,-1.97l1.77,-2.04l1.7,-2.15l1.57,-2.23l1.46,-2.3l1.36,-2.38l1.26,-2.44l1.15,-2.51l0.99,-2.57l0.9,-2.63l0.76,-2.7l0.64,-2.74l0.49,-2.79l0.36,-2.82l0.23,-2.89l0.07,-2.92l0,-226.67l-0.07,-2.911l-0.23,-2.869l-0.36,-2.848l-0.49,-2.783l-0.64,-2.742l-0.76,-2.698l-0.9,-2.614l-0.99,-2.571l-1.15,-2.529l-1.26,-2.423l-1.36,-2.38l-1.46,-2.295l-1.57,-2.231l-1.7,-2.125l-1.77,-2.061l-1.89,-1.976l-1.95,-1.87l-2.07,-1.785l-2.14,-1.679l-2.21,-1.5726l-2.3,-1.4662l-2.38,-1.36l-2.44,-1.2537l-2.51,-1.1476l-2.57,-0.9987l-2.63,-0.8925l-2.7,-0.765l-2.74,-0.6375l-2.79,-0.48876l-2.85,-0.36124l-2.86,-0.23377l-2.94,-0.06375l-226.63,0l-2.933,0.06375l-2.868,0.23377l-2.848,0.36124l-2.784,0.48876l-2.762,0.6375l-2.678,0.765l-2.635,0.8925l-2.571,0.9987l-2.529,1.1476l-2.443,1.2537l-2.359,1.36l-2.316,1.4662l-2.21,1.5726l-2.147,1.679l-2.061,1.785l-1.955,1.87l-1.891,1.976l-1.764,2.061l-1.679,2.125l-1.593,2.231l-1.4665,2.295l-1.36,2.38l-1.2538,2.423l-1.1475,2.529l-0.9987,2.571l-0.8925,2.614l-0.765,2.698l-0.6375,2.742l-0.48877,2.783l-0.36125,2.848l-0.23375,2.869l-0.06375,2.911l0,226.67l0.06375,2.92l0.23375,2.89l0.36125,2.82l0.48877,2.79l0.6375,2.74l0.765,2.7l0.8925,2.63l0.9987,2.57l1.1475,2.51l1.2538,2.44l1.36,2.38l1.4665,2.3l1.593,2.23l1.679,2.15l1.764,2.04l1.891,1.97l1.955,1.87l2.061,1.79l2.147,1.7l2.21,1.57l2.316,1.47l2.359,1.38l2.443,1.25l2.529,1.13l2.571,1.02l2.635,0.89l2.678,0.76l2.762,0.64l2.784,0.49l2.848,0.36l2.868,0.24l2.933,0.06z"/>
      <path id="svg_7" fill="#fff212" fill-rule="evenodd" d="m28.663,56.723l26.435,0l0,113.35l-26.435,0l0,-113.35z"/>
      <path id="svg_8" fill="#fff212" fill-rule="evenodd" d="m173.55,144.15l-1.51,0l-1.49,-0.05l-1.47,-0.06l-1.42,-0.09l-1.4,-0.08l-1.38,-0.13l-1.36,-0.15l-1.34,-0.15l-1.3,-0.19l-1.27,-0.19l-1.26,-0.21l-1.23,-0.23l-1.19,-0.24l-1.17,-0.25l-1.15,-0.28l-1.12,-0.28l-1.09,-0.29l-1.06,-0.3l-1.02,-0.32l-1,-0.32l-0.98,-0.32l-0.93,-0.34l-0.91,-0.34l-0.88,-0.36l-0.85,-0.34l-0.82,-0.36l-0.79,-0.36l-0.77,-0.36l-0.72,-0.36l-0.7,-0.36l-0.66,-0.37l-0.64,-0.36l4.98,-16.7l0.57,0.34l0.6,0.34l0.61,0.34l0.64,0.32l0.66,0.32l0.68,0.32l0.7,0.32l0.72,0.29l0.75,0.3l0.76,0.3l0.77,0.3l0.78,0.27l0.79,0.26l0.81,0.27l0.82,0.26l0.83,0.23l0.85,0.24l0.85,0.21l0.87,0.21l0.85,0.19l0.88,0.19l0.89,0.17l0.87,0.15l0.89,0.15l0.87,0.13l0.9,0.1l0.89,0.11l0.87,0.06l0.89,0.07l0.87,0.06l0.9,0.02l0.87,0l1.4,-0.02l1.36,-0.06l1.27,-0.11l1.19,-0.13l1.15,-0.19l1.09,-0.21l1.02,-0.25l0.95,-0.28l0.92,-0.32l0.85,-0.34l0.78,-0.36l0.72,-0.38l0.68,-0.41l0.64,-0.42l0.6,-0.45l0.53,-0.44l0.49,-0.47l0.46,-0.49l0.41,-0.47l0.36,-0.49l0.32,-0.51l0.3,-0.49l0.25,-0.48l0.23,-0.49l0.2,-0.49l0.14,-0.47l0.13,-0.47l0.11,-0.44l0.08,-0.45l0.05,-0.42l0.04,-0.41l0,-0.38l0,-0.91l-3.17,-0.03l-3.1,-0.08l-3.02,-0.15l-2.93,-0.21l-2.85,-0.28l-2.76,-0.36l-2.7,-0.4l-2.59,-0.49l-2.51,-0.53l-2.4,-0.62l-2.34,-0.68l-2.23,-0.74l-2.12,-0.81l-2.04,-0.87l-1.96,-0.94l-1.85,-1l-1.74,-1.06l-1.64,-1.12l-1.55,-1.19l-1.42,-1.28l-1.34,-1.317l-1.21,-1.381l-1.11,-1.466l-1.02,-1.509l-0.87,-1.572l-0.78,-1.658l-0.66,-1.7l-0.53,-1.785l-0.43,-1.827l-0.32,-1.892l-0.17,-1.976l-0.06,-2.019l0.02,-1.211l0.08,-1.211l0.15,-1.211l0.22,-1.19l0.27,-1.19l0.32,-1.19l0.38,-1.169l0.45,-1.148l0.49,-1.126l0.57,-1.105l0.62,-1.084l0.66,-1.062l0.72,-1.041l0.79,-0.999l0.85,-0.978l0.89,-0.935l0.95,-0.892l1,-0.85l1.07,-0.808l1.1,-0.765l1.17,-0.722l1.23,-0.68l1.28,-0.616l1.34,-0.553l1.38,-0.51l1.42,-0.446l1.51,-0.383l1.53,-0.318l1.59,-0.255l1.64,-0.192l1.7,-0.106l1.74,-0.042l1.06,0.021l1.05,0.042l1.02,0.043l1.02,0.085l0.99,0.106l1,0.128l0.98,0.148l0.98,0.17l0.95,0.213l0.94,0.212l0.93,0.234l0.92,0.255l0.89,0.276l0.89,0.298l0.87,0.34l0.85,0.34l0.83,0.361l0.83,0.383l0.81,0.382l0.79,0.425l0.76,0.446l0.74,0.447l0.75,0.488l0.7,0.489l0.7,0.51l0.68,0.531l0.66,0.553l0.62,0.574l0.61,0.573l0.6,0.595l0.57,0.617l0.55,0.637l0.3,0l2.89,-8.819l21.51,0l0,50.237l-0.03,1.91l-0.1,1.87l-0.15,1.85l-0.21,1.83l-0.28,1.8l-0.36,1.77l-0.4,1.72l-0.49,1.68l-0.58,1.65l-0.61,1.6l-0.73,1.55l-0.78,1.51l-0.87,1.46l-0.94,1.41l-1.04,1.36l-1.1,1.29l-1.19,1.24l-1.3,1.16l-1.38,1.11l-1.47,1.04l-1.55,0.98l-1.66,0.89l-1.74,0.83l-1.85,0.74l-1.93,0.68l-2.06,0.58l-2.15,0.51l-2.25,0.42l-2.36,0.32l-2.47,0.23l-2.57,0.15l-2.67,0.05zm15.08,-56.083l0,-0.51l-0.02,-0.531l-0.04,-0.531l-0.04,-0.553l-0.07,-0.531l-0.06,-0.553l-0.09,-0.531l-0.12,-0.531l-0.05,-0.191l-0.08,-0.277l-0.06,-0.255l-0.07,-0.17l-0.08,-0.212l-0.09,-0.213l-0.23,-0.531l-0.26,-0.51l-0.27,-0.51l-0.3,-0.51l-0.32,-0.489l-0.34,-0.51l-0.36,-0.488l-0.38,-0.468l-0.41,-0.467l-0.4,-0.468l-0.45,-0.446l-0.46,-0.446l-0.47,-0.425l-0.49,-0.404l-0.53,-0.404l-0.53,-0.382l-0.56,-0.362l-0.55,-0.361l-0.59,-0.319l-0.6,-0.318l-0.61,-0.298l-0.64,-0.255l-0.64,-0.255l-0.68,-0.234l-0.68,-0.191l-0.68,-0.191l-0.72,-0.149l-0.72,-0.127l-0.73,-0.107l-0.76,-0.063l-0.77,-0.064l-0.76,0l-0.68,0l-0.66,0.042l-0.64,0.043l-0.64,0.085l-0.61,0.106l-0.6,0.106l-0.59,0.149l-0.58,0.17l-0.53,0.17l-0.55,0.213l-0.51,0.233l-0.49,0.255l-0.49,0.255l-0.44,0.298l-0.45,0.319l-0.4,0.318l-0.41,0.362l-0.36,0.382l-0.36,0.383l-0.32,0.425l-0.3,0.446l-0.29,0.446l-0.26,0.489l-0.23,0.489l-0.19,0.51l-0.19,0.552l-0.15,0.553l-0.13,0.573l-0.11,0.617l-0.06,0.616l-0.04,0.637l-0.02,0.659l0.02,0.744l0.06,0.701l0.11,0.701l0.12,0.68l0.17,0.638l0.22,0.637l0.25,0.595l0.28,0.595l0.32,0.574l0.34,0.531l0.38,0.532l0.42,0.51l0.45,0.488l0.49,0.447l0.51,0.446l0.55,0.425l0.58,0.425l0.59,0.382l0.64,0.362l0.66,0.361l0.68,0.34l0.72,0.319l0.72,0.297l0.77,0.276l0.8,0.277l0.81,0.233l0.83,0.234l0.87,0.234l0.87,0.191l0.92,0.191l0.91,0.17l0.96,0.149l0.89,0.128l0.93,0.127l0.94,0.106l0.98,0.107l0.97,0.063l1.02,0.085l1.02,0.043l1.05,0.042l0.63,0.022l0.64,0.021l0.66,0.021l0.64,0l0.66,0l0.65,0l0.66,0l0.68,0l0,-9.01z"/>
      <path id="svg_9" fill="#fff212" fill-rule="evenodd" d="m285.83,141.66l0,-49.789l0,-0.744l-0.04,-0.722l-0.07,-0.702l-0.1,-0.68l-0.11,-0.68l-0.15,-0.637l-0.19,-0.638l-0.23,-0.595l-0.19,-0.488l-0.24,-0.489l-0.25,-0.489l-0.26,-0.489l-0.27,-0.467l-0.3,-0.489l-0.32,-0.489l-0.34,-0.467l-0.36,-0.468l-0.36,-0.467l-0.41,-0.468l-0.4,-0.446l-0.42,-0.425l-0.45,-0.425l-0.47,-0.404l-0.49,-0.403l-0.51,-0.383l-0.51,-0.382l-0.55,-0.34l-0.55,-0.34l-0.6,-0.298l-0.59,-0.297l-0.62,-0.277l-0.64,-0.233l-0.65,-0.234l-0.68,-0.191l-0.71,-0.17l-0.72,-0.128l-0.72,-0.127l-0.77,-0.064l-0.76,-0.064l-0.81,0l-0.98,0.021l-0.95,0.064l-0.94,0.106l-0.89,0.17l-0.85,0.192l-0.83,0.255l-0.78,0.297l-0.75,0.34l-0.72,0.361l-0.68,0.425l-0.66,0.468l-0.62,0.51l-0.57,0.531l-0.57,0.595l-0.51,0.616l-0.49,0.659l-0.47,0.701l-0.42,0.744l-0.39,0.786l-0.38,0.808l-0.32,0.85l-0.32,0.892l-0.27,0.935l-0.24,0.957l-0.21,0.998l-0.19,1.02l-0.15,1.063l-0.13,1.105l-0.1,1.126l-0.07,1.169l-0.04,1.19l-0.02,1.232l0,44.942l-25.8,0l0,-49.659l0,-1.254l0.04,-1.211l0.05,-1.169l0.06,-1.169l0.09,-1.147l0.1,-1.126l0.13,-1.084l0.13,-1.084l0.17,-1.041l0.17,-1.02l0.19,-0.999l0.23,-0.977l0.24,-0.957l0.25,-0.935l0.26,-0.913l0.29,-0.872l0.3,-0.871l0.34,-0.85l0.32,-0.829l0.36,-0.807l0.36,-0.786l0.36,-0.765l0.41,-0.744l0.4,-0.744l0.4,-0.701l0.43,-0.701l0.45,-0.68l0.46,-0.638l0.47,-0.637l0.49,-0.617l0.49,-0.595l0.51,-0.573l0.53,-0.574l0.55,-0.531l0.55,-0.532l0.56,-0.488l0.59,-0.489l0.58,-0.468l0.61,-0.446l0.62,-0.425l0.64,-0.404l0.63,-0.382l0.66,-0.361l0.66,-0.362l0.68,-0.318l0.7,-0.319l0.7,-0.276l0.73,-0.277l0.74,-0.255l0.72,-0.233l0.77,-0.234l0.74,-0.191l0.79,-0.192l0.76,-0.17l0.79,-0.17l0.81,-0.127l0.8,-0.128l0.81,-0.106l0.83,-0.085l0.83,-0.085l0.85,-0.064l0.85,-0.021l0.87,-0.042l0.87,0l0.77,0l0.74,0.021l0.72,0.021l0.72,0.043l0.73,0.063l0.7,0.064l0.7,0.064l0.68,0.106l0.66,0.085l0.66,0.128l0.66,0.106l0.63,0.149l0.62,0.127l0.62,0.17l0.61,0.17l0.6,0.17l1.14,0.383l1.13,0.403l1.06,0.425l1.04,0.425l1,0.468l0.96,0.467l0.91,0.51l0.87,0.51l0.83,0.532l0.81,0.531l0.77,0.552l0.74,0.553l0.7,0.574l0.66,0.595l0.62,0.595l0.59,0.616l0.57,0.595l0.54,0.595l0.48,0.574l0.47,0.552l0.45,0.531l0.4,0.532l0.36,0.488l0.34,0.51l3.32,-12.07l20.95,0l0,84.937l-26.18,0z"/>
      <path id="svg_10" fill="#fff212" fill-rule="evenodd" d="m79.897,170.07l0,-28.37l-12.049,0l0,-19.36l12.049,0l0,-34.549l0.021,-1.063l0.021,-1.041l0.022,-1.041l0.042,-0.999l0.064,-0.999l0.085,-0.977l0.085,-0.956l0.106,-0.957l0.106,-0.913l0.128,-0.914l0.149,-0.893l0.17,-0.871l0.17,-0.85l0.191,-0.85l0.191,-0.807l0.213,-0.808l0.233,-0.786l0.255,-0.765l0.255,-0.744l0.277,-0.722l0.297,-0.723l0.298,-0.68l0.318,-0.68l0.34,-0.637l0.34,-0.638l0.362,-0.616l0.382,-0.595l0.404,-0.595l0.404,-0.553l0.425,-0.531l0.446,-0.531l0.446,-0.489l0.425,-0.425l0.425,-0.425l0.446,-0.404l0.447,-0.403l0.488,-0.383l0.489,-0.382l0.531,-0.383l0.532,-0.361l0.531,-0.361l0.574,-0.34l0.573,-0.319l0.595,-0.34l0.617,-0.298l0.616,-0.297l0.659,-0.298l0.637,-0.255l0.68,-0.276l0.68,-0.234l0.701,-0.233l0.702,-0.213l0.722,-0.212l0.744,-0.17l0.743,-0.17l0.77,-0.149l0.76,-0.149l0.79,-0.127l0.78,-0.085l0.81,-0.085l0.81,-0.085l0.83,-0.043l0.83,-0.021l0.85,-0.021l1.4,0.021l1.29,0.042l1.22,0.064l1.1,0.085l1.04,0.106l0.96,0.128l0.91,0.149l0.83,0.17l0.81,0.17l0.74,0.191l0.7,0.212l0.7,0.213l1.32,0.467l1.3,0.489l0,19.741l-0.34,-0.127l-0.45,-0.128l-0.53,-0.127l-0.66,-0.106l-0.74,-0.107l-0.83,-0.063l-0.89,-0.064l-0.96,-0.021l-0.85,0.021l-0.79,0.042l-0.76,0.085l-0.72,0.128l-0.68,0.149l-0.64,0.17l-0.62,0.212l-0.57,0.255l-0.53,0.276l-0.51,0.298l-0.49,0.361l-0.43,0.361l-0.42,0.404l-0.38,0.425l-0.36,0.468l-0.32,0.51l-0.3,0.51l-0.28,0.573l-0.25,0.574l-0.24,0.616l-0.19,0.659l-0.19,0.659l-0.15,0.722l-0.15,0.723l-0.1,0.765l-0.11,0.807l-0.08,0.808l-0.07,0.85l-0.04,0.892l-0.04,0.893l-0.02,0.935l0,0.956l0,30.108l16.4,0l0,19.36l-16.4,0l0,28.37l-25.673,0z"/>
      <path id="svg_11" fill="#fff212" fill-rule="evenodd" d="m276.08,170.09l-15.94,-22.91l18.44,0l22.47,22.91l-24.97,0z"/>
     </g>
    </g>
   </g>
  </g>
 </g>
</svg>