<svg id="logosandtypes_com" xmlns="http://www.w3.org/2000/svg" viewBox="0 0 150 150"><path d="M0 0h150v150H0V0z" fill="none"/><path d="M75.1 135.2c39.4 0 71.3-16.1 71.3-35.5 0-14.3-17.1-26.7-41.7-32.4-.3-3.6.3-8.8-2.3-14.8-4-8.5-12.3-18.1-19-27.7-6.7-9.3-5.2-16.3-5.7-19.4-3.1 1.8-10.6 9.8-6.7 23s17.9 28 22 35.8c3.4 5.7 4.2 12.6 2.3 18.9-1.3 4.4-3.6 6.2-5.4 7.3.2-3.7-.4-7.4-1.7-10.8-1.8-4.2-10.4-14-16.6-21.5C65.4 50.8 59.4 40 62 31.2c-2.6 1.5-8.3 8.8-8 17.1S61.1 67.9 65.5 73c4.4 5.4 11.7 16.1 13.2 22s1 10.1-.3 13.2c-1 2.6-4.7 5.4-4.7 5.4.1-2.5-.2-4.9-1-7.3-1.6-3.1-18.4-26.4-20.2-28.7-1.6-2.3-5.5-6.7-5.5-11.1-25.4 6-43.3 18.7-43.3 33.2.1 19.5 32.2 35.5 71.4 35.5z" fill-rule="evenodd" clip-rule="evenodd" fill="#ec2227"/></svg>